<?xml version="1.0" encoding="utf-8"?>
<!-- Generator: Adobe Illustrator 22.1.0, SVG Export Plug-In . SVG Version: 6.00 Build 0)  -->
<svg version="1.1" id="Layer_1" xmlns="http://www.w3.org/2000/svg" xmlns:xlink="http://www.w3.org/1999/xlink" x="0px" y="0px"
	 viewBox="0 0 768 768" style="enable-background:new 0 0 768 768;" xml:space="preserve">
<style type="text/css">
	.st0{fill:#FDBA13;}
</style>
<path class="st0" d="M251.8,443.6c-1.5,6.1-9.9,13-20.8,13c-11.7,0-21.3-6.8-17.8-23.8l5.9-30.8c1.7-8.4-1-12.3-8.1-12.3
	c-3.9,0-8.7,1.7-12.8,4.5l-11.6,60.2c-0.1,0.7-0.7,1.1-1.4,1.1h-22.6c-4.2,0-5.8-1.8-5.1-5.1l19.1-98.5c-3.4-0.1-7.8-0.4-13.1-1
	c-4-0.4-10.1-5.1-10.6-6.5c-0.3-1,0.4-1.9,1.3-2.1c4.7-1,36.1-6.4,47.4-6.4c5.1,0,7.4,2.3,6.6,6.5l-7,35.5c7.6-7.3,17.7-11,26.1-11
	c18,0,26.1,11.7,21.3,36l-4.7,24.7c-0.8,4.3,0.4,6.3,3.5,6.3h4.4C252.3,437.2,252.6,440.3,251.8,443.6z M348.2,377.4
	c-0.4,0.4-0.8,0.7-1.2,1.1c7,7.6,10.3,19,7.4,33.5c-5.5,28.8-30.5,45.2-54.5,45.2c-24,0-42.5-16.4-36.9-45.2
	c2.4-12.4,8.4-22.5,16.4-29.9c-2-0.1-4-0.3-5.9-0.5c-4.1-0.4-9-4.4-9.5-5.9c-0.4-0.9,0.4-1.8,1.3-2.1c4.7-1.1,13.1-2.5,19.2-3.4
	c21.9-3.5,32.3-3.4,33.2-3.4c8.7,0,16.7,2.2,23.1,6.4c1-1.2,1.8-2.6,2.3-3.8c-3.5-1.2-5.7-4.8-4.8-9.8c1.1-5.9,5.9-9.6,11.4-9.6
	c5.1,0,9.2,4,8,10.4C356.4,367,353.2,372.6,348.2,377.4z M312.4,389.5c-9.2,0-16.6,7.3-19.5,21.8c-2.7,14.6,1.8,23.3,12,23.3
	c9.2,0,16.7-7.3,19.4-21.7C327.3,398.3,322.6,389.5,312.4,389.5z M298.2,467.7c-8.4,0-15.7,5.7-17.5,14.9
	c-1.9,10.1,4.5,16.2,12.5,16.2c8.4,0,15.9-5.7,17.7-14.9C312.8,473.8,306.1,467.7,298.2,467.7z M156.1,383.7
	c-4-9.6-15.4-16.7-32.3-16.7c-1.1,0-11.7-0.1-33.7,3.4c-6,1-15.3,2.3-20,3.4c-1,0.2-1.6,1.2-1.3,2.1c0.5,1.5,6,5.5,10.1,6.2
	c2.1,0.4,4.4,0.6,6.6,0.8c-7,7.3-11.9,16.6-13.9,26.9c-5.5,28.8,11.8,47.6,37.8,47.6c19.6,0,33.9-9.9,35-15.4
	c0.6-3-0.1-7.7-1.4-10.9c-0.3-0.7-1-0.9-1.7-0.6c-5.1,2.5-12.3,4.2-19,4.2c-15.8,0-23.6-10.2-20.7-25.3c2.4-12.6,8.7-19.8,17.2-19.8
	c5.9,0,9.5,3.3,10.1,11.5c0.1,0.8,0.8,1.5,1.7,1.4c7.9-1,14.7-3.2,18.5-5.1c4.6-2.3,7-4.9,7.5-7.8C157,387.7,157,386.1,156.1,383.7z
	 M593.5,307.6c4.5,3.7,7.4,2.2,13-2.4c8.4-7,11.9-9.7,16-13.8c5.7-5.7,5.5-12,2.1-15.4c-1.3-1.3-6.4-4.1-10.9-6.5
	c-1.5-0.8-2.9-0.6-3.9,0.8c-0.9,1.3-17,24.8-20.4,30.3c-0.7,1-1.2,2.3,0.7,4C590.2,304.7,592.4,306.6,593.5,307.6z M576.5,305.2
	c-2.8,2-7.5,4.6-10.1,5.7c-1.6,0.7-3,0.9-4.5,0.9c-1.4,0-3.1-0.6-5.2-1.6c-3.8-1.9-9.6-4.6-9.6-4.6c-2.6-1.5-5.8-1.8-8.6-0.7
	l-17.9,6c-2.4,0.8-5,1.1-7.4,0.2c-2.9-1-11.8-6.1-12.1-6.4c-0.8-0.6-1.2-1.3-1.3-2.2c0-1.2,0.7-2,2.4-2.9l31.7-17.2
	c2.4-1.4,5.3-2.1,8.2-2.1h8.5c2.5,0,3.3,0.1,5.7,2.1c5.1,4.2,19.5,17.2,19.5,17.2c1.5,1.3,2.3,2.3,2.3,3.3
	C578.2,303.6,578,304.1,576.5,305.2z M543.4,319.6c18.4,0.6,32.3,6.7,39.6,16c7.5,9.1,9.2,24.9,4.4,47.6l-2.9,13.5
	c-4.8,22.9-12,38.4-21.4,46.9c-9.4,8.5-22.2,12.2-42.8,13c-4.7,0.2-10.8,0.1-14.4,0c-21-0.8-32.9-4.8-40.4-13.9
	c-7.3-9.2-8.6-25.2-3.9-47.9l2.9-13.5c5-22.9,12.2-38.5,21.5-47c9.4-8.5,23.9-14.4,42.9-14.7C532.4,319.5,537.8,319.4,543.4,319.6z
	 M565.2,349c-3.8-3.4-9.4-2.5-13.5,1.7l-43.5,48.5c-0.4,0.4-0.6,0.5-0.6,0.5s-0.3-0.1-0.7-0.5c-2.3-2-7.1-7.3-7.1-7.4
	c-4.9-5.7-10.6-4.6-14-1.9c-3.3,2.6-5.1,8.6-2,13.8l0.9,1.4c2.8,4.6,7,11.6,10,15.6c3,3.9,7.3,6.3,11.9,6.6h0.7
	c4.3,0,8.4-1.8,11.4-5.2c13.4-14.8,45.5-58.3,46.9-60.3C569.1,357.1,568.5,352,565.2,349z M472.1,322c0,0-92.5,0.1-104.9,0
	c-2.6,0-3.9,2-3.9,4.3c0,1.5,1.9,4.6,4.1,7.6c1.4,1.9,9,12,12,16c0.8,1,2.1,1.7,3.4,1.7h20l-19.7,101.9c-0.2,1,0.6,2.1,1.7,2.1h20.4
	c8,0,14.9-5.7,16.5-13.6l17.4-90.4h17.8c1.4,0,2.6-0.7,3.4-1.7c0,0,4.3-5.5,8.2-10.7c2.5-3.3,4.3-5.8,5.9-8c1.4-2.1,2.1-3.6,2.1-4.8
	C476.5,323.9,474.7,322,472.1,322z M694.7,322.2c0,0-87.7,0-100.1,0c-3.1,0-4.2,1.6-4.2,4c0,1.1,0.7,2.9,2,4.9
	c5.1,8.1,7.9,12.8,12.4,18.8c0.8,1.1,2.1,1.7,3.4,1.7h18.2l-19.7,102c-0.2,1.1,0.6,2.1,1.7,2.1H629c8,0,14.9-5.7,16.4-13.6
	l17.4-90.5l25-0.1c1.2,0,2.2-0.7,2.7-1.7c1.6-3.5,5.4-11.8,5.4-11.8c1.4-3.2,2.1-5.1,3.4-8.5c0.4-1.2,0.5-2.3,0.5-3.2
	C699.8,323.6,697.5,322.2,694.7,322.2z"/>
</svg>
